<svg width="210" height="25" viewBox="0 0 210 25" fill="none" xmlns="http://www.w3.org/2000/svg">
<path d="M14.3953 15.0721C15.3183 15.636 16.3788 16.3971 17.4699 17.4385C18.448 18.3691 19.2029 19.2688 19.7897 20.0853C18.0293 22.9879 15.0127 24.8737 10.8775 24.8737C3.83263 24.8767 0.11614 19.4383 0.11614 12.7642C0.11614 6.09017 3.83263 0.623984 10.8744 0.623984C13.3622 0.623984 15.4008 1.29878 17.0482 2.45426C18.4724 3.468 19.3099 4.65122 19.7866 5.41229C19.0592 6.25656 18.1943 7.15938 17.1888 8.05911C16.0977 9.04512 15.0371 9.86166 14.0866 10.5395C13.7229 8.53979 12.4392 7.52605 10.8744 7.52605C8.13593 7.52605 6.68418 9.86474 6.68418 12.7365C6.68418 15.6082 8.13593 17.9469 10.8744 17.9469C12.3567 17.9469 13.6954 16.736 14.3953 15.0752V15.0721Z" fill="#F0F5EA"/>
<path d="M10.8744 24.9938C4.26969 24.9938 0 20.1932 0 12.7642C0 5.33526 4.26969 0.503814 10.8744 0.503814C13.2614 0.503814 15.3611 1.12623 17.1154 2.35566C18.2035 3.12906 19.1112 4.10891 19.8875 5.34759L19.9333 5.42462L19.8753 5.4924C19.0806 6.41679 18.2004 7.31344 17.2652 8.15155C16.3177 9.01123 15.3 9.8216 14.1538 10.6381L14.001 10.746L13.9674 10.5611C13.6373 8.73391 12.4759 7.64622 10.8713 7.64622C8.39572 7.64622 6.79726 9.64597 6.79726 12.7396C6.79726 15.8332 8.39572 17.8329 10.8713 17.8329C12.2284 17.8329 13.567 16.7329 14.2853 15.032L14.3372 14.9057L14.4534 14.9766C15.5628 15.6545 16.6019 16.4556 17.5464 17.3584C18.4235 18.1904 19.209 19.087 19.8814 20.0206L19.9272 20.0853L19.8844 20.1531C17.9895 23.2806 14.7865 25 10.8713 25L10.8744 24.9938ZM10.8744 0.741072C4.41333 0.741072 0.235337 5.46159 0.235337 12.7642C0.235337 20.0669 4.41028 24.7566 10.8744 24.7566C14.6765 24.7566 17.7909 23.1019 19.646 20.0915C18.992 19.1918 18.234 18.329 17.3874 17.5248C16.4889 16.6651 15.5017 15.8979 14.4503 15.2447C13.6832 16.9609 12.2925 18.064 10.8744 18.064C8.25513 18.064 6.56498 15.9718 6.56498 12.7334C6.56498 9.49499 8.29792 7.4028 10.8744 7.4028C12.5493 7.4028 13.7718 8.49357 14.1691 10.3331C15.248 9.55969 16.2107 8.78629 17.1124 7.96975C18.017 7.15937 18.8697 6.29354 19.643 5.39997C18.8942 4.22292 18.0231 3.29237 16.984 2.54978C15.2724 1.34808 13.2155 0.741072 10.8775 0.741072H10.8744Z" fill="black"/>
<path d="M40.7133 12.453C40.7133 16.4802 40.6858 20.452 40.6002 24.3683C39.6497 24.4515 38.5891 24.5101 37.443 24.5101H36.9387C35.9057 24.5101 34.9277 24.4546 34.0597 24.3683V14.1446H29.1145V24.3683C28.109 24.4515 27.0485 24.4823 25.9023 24.5101C24.7012 24.5101 23.5826 24.4546 22.5496 24.3683C22.4365 20.5383 22.354 16.5665 22.354 12.5085C22.354 8.45043 22.4365 4.81761 22.5496 1.12931C23.387 1.07385 24.31 1.01531 25.2605 1.01531H25.8748C27.021 1.01531 28.109 1.04304 29.1145 1.12931V11.353H34.0597V1.12931C34.9246 1.04612 35.8751 0.987575 36.8807 0.987575H37.3544C38.528 0.987575 39.6161 1.04304 40.5941 1.12931C40.6766 4.84842 40.7072 8.62298 40.7072 12.453H40.7133Z" fill="#F0F5EA"/>
<path d="M37.4461 24.6302H36.9448C35.9974 24.6302 35.0255 24.584 34.0536 24.4885L33.9466 24.4792V14.2648H29.2368V24.4823L29.1268 24.4916C28.0998 24.5778 26.9843 24.6056 25.9085 24.6333C24.8143 24.6333 23.7171 24.5871 22.5434 24.4916L22.4365 24.4823V24.3745C22.2989 19.8173 22.2378 16.0489 22.2378 12.5116C22.2378 8.97425 22.2989 5.51705 22.4334 1.12931V1.02147L22.5434 1.01531C23.4023 0.956762 24.3222 0.901299 25.2605 0.901299H25.8748C27.1463 0.901299 28.2099 0.938275 29.1268 1.01531L29.2368 1.02455V11.2421H33.9466V1.02763L34.0536 1.01839C35.0255 0.922867 35.976 0.876649 36.8868 0.876649H37.3636C38.4272 0.876649 39.5213 0.922867 40.6155 1.01839L40.7194 1.02763V1.13548C40.7989 4.5064 40.8325 8.10533 40.8325 12.4623C40.8325 17.0441 40.7989 20.831 40.7194 24.3806V24.4885L40.6124 24.4977C39.5488 24.5933 38.4852 24.6395 37.4461 24.6395V24.6302ZM34.1819 24.2636C35.111 24.3498 36.0371 24.393 36.9418 24.393H37.443C38.4424 24.393 39.4633 24.3498 40.4841 24.2605C40.5574 20.7417 40.5941 16.9856 40.5941 12.453C40.5941 7.92045 40.5574 4.57726 40.4841 1.23716C39.4327 1.15088 38.3813 1.10466 37.3605 1.10466H36.8837C36.0157 1.10466 35.1049 1.1478 34.1789 1.23408V11.4701H28.9984V1.23408C28.1121 1.16629 27.0913 1.12931 25.8748 1.12931H25.2605C24.365 1.12931 23.4909 1.18169 22.6657 1.23408C22.5343 5.57252 22.4731 9.15604 22.4731 12.5023C22.4731 15.8486 22.5343 19.7464 22.6657 24.2512C23.7935 24.3406 24.854 24.3837 25.9023 24.3837C26.9354 24.356 28.0081 24.3313 28.9984 24.2512V14.0152H34.1789V24.2512L34.1819 24.2636Z" fill="black"/>
<path d="M62.8136 24.3683C61.753 24.4515 60.6069 24.4823 59.4333 24.4823C58.2596 24.4823 57.086 24.4546 55.998 24.3683C55.7198 22.6767 55.4111 20.9327 55.0474 19.1579H50.6341C50.2704 20.9327 49.9648 22.6798 49.6836 24.3683C48.5925 24.4515 47.4219 24.4823 46.2177 24.4823C45.0135 24.4823 43.9255 24.4546 42.8374 24.3683C43.5648 20.4243 44.5429 16.1136 45.8846 11.5502C46.9757 7.77563 48.1768 4.31227 49.433 1.15704C50.466 1.07385 51.6121 1.01531 52.8133 1.01531C54.0144 1.01531 55.188 1.07077 56.2486 1.15704C57.3672 4.56494 58.5408 8.05911 59.6014 11.7197C60.8575 16.1136 61.9211 20.338 62.8136 24.3683ZM54.4606 16.3693C54.4056 16.0581 54.3475 15.7777 54.265 15.4665C53.8188 13.4668 53.342 11.5225 52.8408 9.66446C52.3365 11.581 51.8353 13.5808 51.389 15.6637C51.334 15.8886 51.2759 16.1136 51.2209 16.3693H54.4606Z" fill="#F0F5EA"/>
<path d="M59.4333 24.5994C58.0763 24.5994 56.9821 24.5655 55.9857 24.4885L55.8941 24.4823L55.8788 24.3899C55.5517 22.4086 55.2553 20.7817 54.9496 19.278H50.7258C50.4202 20.7817 50.1237 22.4086 49.7967 24.3899L49.7814 24.4823L49.6897 24.4885C48.7086 24.5655 47.5747 24.5994 46.2147 24.5994C44.8546 24.5994 43.8185 24.5655 42.8252 24.4885L42.6938 24.4792L42.7182 24.3498C43.5221 19.9837 44.549 15.6668 45.7684 11.5225C46.8045 7.93278 47.9996 4.43244 49.3199 1.11699L49.3474 1.0492L49.4208 1.04304C50.576 0.947519 51.716 0.901299 52.8102 0.901299C53.9044 0.901299 55.0505 0.947519 56.2578 1.04304L56.3372 1.0492L56.8598 2.63914C57.8195 5.55403 58.8098 8.56752 59.7145 11.6919C60.9156 15.8917 61.9975 20.1501 62.9297 24.3498L62.9603 24.4823L62.8227 24.4916C61.8661 24.5686 60.7597 24.6025 59.4333 24.6025V24.5994ZM56.0988 24.2574C57.0616 24.3283 58.1252 24.3622 59.4333 24.3622C60.7414 24.3622 61.75 24.3283 62.6669 24.2605C61.7439 20.1131 60.6741 15.904 59.4852 11.7536C58.5806 8.63531 57.5903 5.62182 56.6306 2.71001L56.1569 1.27105C54.9863 1.1817 53.8922 1.13548 52.8072 1.13548C51.7222 1.13548 50.6341 1.1817 49.5063 1.27105C48.2013 4.55878 47.0154 8.0283 45.9885 11.5872C44.7843 15.6853 43.7696 19.9498 42.9689 24.2605C43.9194 24.3313 44.9555 24.3622 46.2086 24.3622C47.4617 24.3622 48.6169 24.3283 49.5705 24.2574C49.9006 22.2731 50.1971 20.6431 50.5057 19.1332L50.5241 19.0377H55.13L55.1483 19.1332C55.457 20.6431 55.7535 22.2731 56.0835 24.2574H56.0988ZM54.6043 16.4864H51.0742L51.1048 16.3416C51.1506 16.1228 51.1995 15.9287 51.2484 15.7346L51.2729 15.6329C51.7619 13.3589 52.3059 11.2297 52.7277 9.63364L52.8408 9.20535L52.9569 9.63364C53.4459 11.4393 53.9258 13.3928 54.3812 15.4419C54.4606 15.7377 54.5156 16.0088 54.5798 16.3478L54.6043 16.4895V16.4864ZM51.3676 16.2491H54.32C54.2681 15.978 54.2192 15.7469 54.1519 15.4973C53.7302 13.6085 53.2901 11.8059 52.8438 10.1236C52.4404 11.6611 51.9483 13.6116 51.5052 15.6884L51.4807 15.7931C51.444 15.941 51.4074 16.0889 51.3707 16.2491H51.3676Z" fill="black"/>
<path d="M86.2281 12.3976C86.2281 16.4833 86.2006 20.4828 86.115 24.3961C85.2775 24.4515 84.382 24.5101 83.404 24.5101H82.7897C81.6436 24.5101 80.5555 24.4823 79.55 24.3961C79.4675 21.0436 79.3819 17.6357 79.3819 14.1416V12.5362C79.3819 11.0726 79.3819 10.2252 79.4094 8.78937L75.5248 16.6774L71.6402 8.87565C71.6402 10.2561 71.6677 10.9894 71.6677 12.3976C71.6677 16.4833 71.6127 20.4828 71.5271 24.3961C70.6897 24.4515 69.7942 24.5101 68.8437 24.5101H68.2294C67.0557 24.5101 65.9677 24.4823 64.9591 24.3961C64.846 20.5383 64.791 16.5943 64.791 12.5362C64.791 8.47816 64.846 4.84534 64.9591 1.15704C65.9096 1.04304 66.9702 0.987575 68.1438 0.987575H68.3119C69.458 0.987575 70.5186 1.04304 71.4691 1.15704L71.5241 1.29878L75.5187 10.0034L79.5408 1.21559L79.5683 1.16013C80.4913 1.04612 81.5519 0.990656 82.698 0.990656H83.2023C84.2628 0.990656 85.2409 1.07385 86.1089 1.16013C86.1914 4.8515 86.2219 8.59525 86.2219 12.4006L86.2281 12.3976Z" fill="#F0F5EA"/>
<path d="M82.7928 24.6302C81.5183 24.6302 80.4577 24.5933 79.5439 24.5162L79.4369 24.507V24.4022C79.3574 21.2809 79.2658 17.7436 79.2658 14.1446V12.5393C79.2658 11.2852 79.2658 10.4625 79.2841 9.31936L75.5279 16.9455L71.7655 9.38098C71.7655 9.83393 71.7717 10.2252 71.7778 10.6166C71.7839 11.1496 71.793 11.6889 71.793 12.3976C71.793 16.0828 71.7472 20.0083 71.6555 24.3991V24.5101L71.5455 24.5162C70.6164 24.5779 69.7728 24.6302 68.8559 24.6302H68.2416C66.9304 24.6302 65.8882 24.5933 64.9622 24.5162L64.8552 24.507V24.4022C64.7421 20.5722 64.684 16.5819 64.684 12.5393C64.684 8.49665 64.7391 4.8176 64.8521 1.15396V1.05228L64.956 1.03996C65.9127 0.92903 66.9885 0.870486 68.156 0.870486H68.3241C69.4733 0.870486 70.54 0.92903 71.4966 1.03996L71.5669 1.0492L71.6494 1.25565L75.534 9.71992L79.5072 1.0492L79.5714 1.03996C80.5005 0.92903 81.558 0.870486 82.7133 0.870486H83.2145C84.2904 0.870486 85.2867 0.956762 86.1333 1.03996L86.2372 1.0492V1.15396C86.3167 4.51256 86.3503 8.08376 86.3503 12.3976C86.3503 17.0226 86.3167 20.8372 86.2403 24.3991V24.5101L86.1303 24.5162C85.2011 24.5779 84.3545 24.6302 83.4132 24.6302H82.7928ZM79.6661 24.2882C80.5494 24.3591 81.5733 24.393 82.7897 24.393H83.404C84.3026 24.393 85.1156 24.3468 85.9988 24.2882C86.0722 20.7571 86.1089 16.9763 86.1089 12.4006C86.1089 8.13614 86.0752 4.59575 85.9988 1.26797C85.1797 1.19094 84.2292 1.11083 83.2084 1.11083H82.7072C81.5855 1.11083 80.5586 1.16629 79.6539 1.27105L75.5248 10.29L71.3896 1.27105C70.4605 1.16629 69.4275 1.11083 68.3149 1.11083H68.1469C67.0313 1.11083 65.9983 1.16321 65.0783 1.26797C64.9683 4.89464 64.9133 8.69077 64.9133 12.5424C64.9133 16.394 64.9683 20.4952 65.0783 24.2913C65.9738 24.3622 66.9793 24.3961 68.2324 24.3961H68.8467C69.7209 24.3961 70.5308 24.3498 71.4141 24.2913C71.5058 19.9436 71.5516 16.055 71.5516 12.4037C71.5516 11.6981 71.5455 11.1589 71.5363 10.6258C71.5302 10.0958 71.521 9.57202 71.521 8.88181V8.37956L75.5218 16.4186L79.5347 8.26864L79.5255 8.79862C79.498 10.2345 79.498 11.0541 79.498 12.5424V14.1477C79.498 17.7004 79.5867 21.1977 79.6631 24.2913L79.6661 24.2882Z" fill="black"/>
<path d="M108.298 24.3683C107.237 24.4515 106.091 24.4823 104.917 24.4823C103.744 24.4823 102.57 24.4546 101.482 24.3683C101.204 22.6767 100.895 20.9327 100.532 19.1579H96.1183C95.7546 20.9327 95.449 22.6798 95.1678 24.3683C94.0767 24.4515 92.9061 24.4823 91.7019 24.4823C90.4977 24.4823 89.4097 24.4546 88.3216 24.3683C89.049 20.4243 90.0271 16.1136 91.3688 11.5502C92.4599 7.77563 93.661 4.31227 94.9172 1.15704C95.9502 1.07385 97.0964 1.01531 98.2975 1.01531C99.4986 1.01531 100.672 1.07077 101.733 1.15704C102.851 4.56494 104.025 8.05911 105.086 11.7197C106.342 16.1136 107.405 20.338 108.298 24.3683ZM99.9448 16.3693C99.8898 16.0581 99.8318 15.7777 99.7492 15.4665C99.303 13.4668 98.8262 11.5225 98.325 9.66446C97.8207 11.581 97.3195 13.5808 96.8732 15.6637C96.8182 15.8886 96.7602 16.1136 96.7051 16.3693H99.9448Z" fill="#F0F5EA"/>
<path d="M104.917 24.5994C103.56 24.5994 102.466 24.5655 101.47 24.4885L101.378 24.4823L101.363 24.3899C101.036 22.4086 100.739 20.7817 100.434 19.278H96.2131C95.9074 20.7817 95.611 22.4086 95.284 24.3899L95.2687 24.4823L95.177 24.4885C94.1959 24.5655 93.062 24.5994 91.7019 24.5994C90.3419 24.5994 89.3058 24.5655 88.3125 24.4885L88.181 24.4792L88.2055 24.3498C89.0093 19.9837 90.0362 15.6668 91.2557 11.5225C92.2918 7.93278 93.4868 4.43244 94.8072 1.11699L94.8347 1.0492L94.908 1.04304C96.0633 0.947519 97.2033 0.901299 98.2975 0.901299C99.3916 0.901299 100.541 0.947519 101.745 1.04304L101.824 1.0492L102.347 2.63914C103.307 5.55403 104.297 8.56752 105.202 11.6919C106.403 15.8917 107.485 20.1501 108.417 24.3498L108.448 24.4823L108.31 24.4916C107.353 24.5686 106.247 24.6025 104.921 24.6025L104.917 24.5994ZM101.583 24.2574C102.546 24.3283 103.609 24.3622 104.917 24.3622C106.226 24.3622 107.234 24.3283 108.151 24.2605C107.228 20.1131 106.158 15.904 104.969 11.7536C104.065 8.63531 103.075 5.62182 102.115 2.71001L101.641 1.27105C100.474 1.1817 99.3764 1.13548 98.2914 1.13548C97.2064 1.13548 96.1183 1.1817 94.9905 1.27105C93.6855 4.55878 92.4996 8.0283 91.4727 11.5872C90.2685 15.6853 89.2538 19.9498 88.4531 24.2605C89.4036 24.3313 90.4397 24.3622 91.6928 24.3622C92.9459 24.3622 94.1012 24.3283 95.0547 24.2574C95.3848 22.2731 95.6813 20.6431 95.99 19.1332L96.0083 19.0377H100.614L100.633 19.1332C100.941 20.6431 101.238 22.2731 101.568 24.2574H101.583ZM100.088 16.4864H96.5584L96.589 16.3416C96.6348 16.1228 96.6837 15.9287 96.7326 15.7346L96.7571 15.6329C97.2369 13.3959 97.784 11.2513 98.2119 9.63364L98.325 9.20535L98.4411 9.63364C98.9301 11.4393 99.41 13.3928 99.8654 15.4419C99.9448 15.7377 99.9999 16.0088 100.064 16.3478L100.088 16.4895V16.4864ZM96.8518 16.2491H99.8042C99.7523 15.978 99.7034 15.7469 99.6362 15.4973C99.2144 13.6085 98.7743 11.8059 98.328 10.1266C97.9216 11.6827 97.4264 13.6455 96.9894 15.6884L96.9649 15.7931C96.9283 15.941 96.8916 16.0889 96.8549 16.2491H96.8518Z" fill="black"/>
<path d="M127.076 17.722C127.158 18.7635 127.189 19.8635 127.189 21.0467C127.189 22.2299 127.161 23.3268 127.076 24.3437C124.365 24.4854 121.516 24.5409 118.582 24.5409C115.648 24.5409 113.105 24.4577 110.535 24.3437C110.339 20.5968 110.226 16.6251 110.226 12.4838C110.226 8.34259 110.339 4.73749 110.535 1.13239C113.078 1.01839 115.703 0.962924 118.442 0.962924C121.18 0.962924 123.974 1.01839 126.599 1.13239C126.712 2.1184 126.767 3.18761 126.767 4.37082C126.767 5.55403 126.712 6.70951 126.599 7.75098H117.1V11.3283H124.979V14.1446H117.1V17.722H127.076Z" fill="#F0F5EA"/>
<path d="M118.579 24.658C116.162 24.658 113.604 24.5963 110.529 24.4608L110.422 24.4546L110.416 24.3468C110.211 20.4582 110.107 16.4648 110.107 12.4807C110.107 8.49665 110.211 4.86999 110.416 1.12315L110.422 1.01531L110.529 1.00914C113.053 0.895137 115.715 0.839672 118.442 0.839672C121.168 0.839672 123.998 0.895137 126.605 1.00914H126.706L126.718 1.11391C126.831 2.11224 126.886 3.17528 126.886 4.36774C126.886 5.56019 126.828 6.72183 126.718 7.76023L126.706 7.86499H117.216V11.2051H125.095V14.2586H117.216V17.5988H127.183L127.192 17.7097C127.268 18.671 127.305 19.731 127.305 21.0436C127.305 22.3562 127.268 23.4254 127.192 24.3468L127.183 24.4515L127.079 24.4577C124.515 24.5902 121.733 24.6549 118.579 24.6549V24.658ZM110.645 24.2266C113.671 24.3591 116.192 24.4207 118.579 24.4207C121.688 24.4207 124.432 24.3591 126.963 24.2266C127.033 23.333 127.067 22.2915 127.067 21.0467C127.067 19.8019 127.033 18.7666 126.963 17.8422H116.978V14.0275H124.857V11.4485H116.978V7.63389H126.489C126.593 6.63248 126.645 5.53554 126.645 4.3739C126.645 3.21226 126.593 2.20776 126.489 1.24948C123.916 1.13856 121.205 1.08309 118.436 1.08309C115.667 1.08309 113.13 1.13856 110.642 1.2464C110.443 4.95318 110.339 8.73391 110.339 12.4838C110.339 16.4248 110.44 20.375 110.642 24.2297L110.645 24.2266Z" fill="black"/>
<path d="M164.54 17.722C164.623 18.7635 164.653 19.8635 164.653 21.0467C164.653 22.2299 164.626 23.3268 164.54 24.3437C161.829 24.4854 158.981 24.5409 156.047 24.5409C153.113 24.5409 150.57 24.4577 147.999 24.3437C147.804 20.5968 147.694 16.6251 147.694 12.4838C147.694 8.34259 147.807 4.73749 147.999 1.13239C150.542 1.01839 153.168 0.962924 155.906 0.962924C158.645 0.962924 161.438 1.01839 164.063 1.13239C164.177 2.1184 164.232 3.18761 164.232 4.37082C164.232 5.55403 164.177 6.70951 164.063 7.75098H154.564V11.3283H162.444V14.1446H154.564V17.722H164.54Z" fill="#F0F5EA"/>
<path d="M156.047 24.658C153.629 24.658 151.071 24.5963 147.993 24.4608L147.886 24.4546L147.88 24.3468C147.675 20.4335 147.572 16.4402 147.572 12.4807C147.572 8.5213 147.675 4.89155 147.88 1.12315L147.886 1.01531L147.993 1.00914C150.518 0.895137 153.18 0.839672 155.906 0.839672C158.632 0.839672 161.463 0.895137 164.07 1.00914H164.17L164.183 1.11391C164.296 2.11224 164.351 3.17528 164.351 4.36774C164.351 5.56019 164.293 6.72183 164.183 7.76023L164.17 7.86499H154.684V11.2051H162.563V14.2586H154.684V17.5988H164.65L164.659 17.7097C164.736 18.6618 164.769 19.7187 164.769 21.0436C164.769 22.3686 164.733 23.4347 164.659 24.3468L164.65 24.4515L164.546 24.4577C161.982 24.5902 159.201 24.6549 156.047 24.6549V24.658ZM148.113 24.2266C151.138 24.3591 153.663 24.4207 156.047 24.4207C159.155 24.4207 161.9 24.3591 164.43 24.2266C164.501 23.3423 164.534 22.3008 164.534 21.0467C164.534 19.7926 164.501 18.7604 164.43 17.8422H154.445V14.0275H162.324V11.4485H154.445V7.63389H163.956C164.06 6.63248 164.112 5.53554 164.112 4.3739C164.112 3.21226 164.06 2.20776 163.956 1.24948C161.383 1.13856 158.675 1.08309 155.903 1.08309C153.131 1.08309 150.597 1.13856 148.106 1.2464C147.908 4.97475 147.804 8.75548 147.804 12.4838C147.804 16.4032 147.905 20.3534 148.106 24.2297L148.113 24.2266Z" fill="black"/>
<path d="M187.9 12.7642C187.9 19.4414 184.183 24.8767 177.141 24.8767C170.1 24.8767 166.383 19.4414 166.383 12.7642C166.383 6.08709 170.1 0.623984 177.141 0.623984C184.183 0.623984 187.9 6.05936 187.9 12.7642ZM181.335 12.7365C181.335 9.86474 179.883 7.52605 177.145 7.52605C174.406 7.52605 172.954 9.86474 172.954 12.7365C172.954 15.6082 174.406 17.9469 177.145 17.9469C179.883 17.9469 181.335 15.636 181.335 12.7365Z" fill="#F0F5EA"/>
<path d="M177.141 24.9938C170.534 24.9938 166.267 20.1932 166.267 12.7611C166.267 5.3291 170.537 0.500732 177.141 0.500732C183.746 0.500732 188.016 5.31061 188.016 12.7611C188.016 20.2117 183.746 24.9938 177.141 24.9938ZM177.141 0.741072C170.677 0.741072 166.502 5.46159 166.502 12.7642C166.502 20.0669 170.677 24.7566 177.141 24.7566C183.606 24.7566 187.781 20.0484 187.781 12.7642C187.781 5.48008 183.606 0.741072 177.141 0.741072ZM177.141 18.064C174.522 18.064 172.832 15.9718 172.832 12.7334C172.832 9.49499 174.565 7.4028 177.141 7.4028C179.718 7.4028 181.451 9.54429 181.451 12.7334C181.451 15.9225 179.761 18.064 177.141 18.064ZM177.141 7.64006C174.666 7.64006 173.067 9.63981 173.067 12.7334C173.067 15.827 174.666 17.8268 177.141 17.8268C179.617 17.8268 181.216 15.827 181.216 12.7334C181.216 9.63981 179.617 7.64006 177.141 7.64006Z" fill="black"/>
<path d="M209.887 12.3976C209.887 16.4833 209.832 20.4828 209.746 24.3961C208.909 24.4515 208.013 24.5101 207.063 24.5101H206.308C205.217 24.5101 204.211 24.4823 203.264 24.3961L203.181 24.2266L197.008 8.98657V12.3945C197.008 16.4802 196.98 20.4797 196.894 24.393C196.057 24.4484 195.162 24.507 194.184 24.507H193.569C192.423 24.507 191.335 24.4792 190.326 24.393C190.244 21.0405 190.158 17.6326 190.158 14.1385V12.5331C190.158 8.64455 190.213 4.84225 190.326 1.15396C191.277 1.03996 192.338 0.984493 193.511 0.984493H193.762C194.88 0.984493 195.913 1.03996 196.836 1.15396L196.891 1.2957L203.038 16.4494C203.01 15.1522 203.01 13.8581 203.01 12.5331C203.01 8.64455 203.065 4.84225 203.178 1.15396C204.129 1.03996 205.217 0.984493 206.363 0.984493H206.837C207.897 0.984493 208.875 1.06769 209.743 1.15396C209.826 4.84534 209.884 8.58909 209.884 12.3945L209.887 12.3976Z" fill="#F0F5EA"/>
<path d="M207.066 24.6302H206.311C205.104 24.6302 204.132 24.5933 203.255 24.5162L203.187 24.5101L203.074 24.282L197.124 9.59667V12.3976C197.124 17.0349 197.09 20.8495 197.011 24.3991V24.5101L196.901 24.5162C195.971 24.5779 195.125 24.6302 194.184 24.6302H193.569C192.298 24.6302 191.234 24.5933 190.317 24.5162L190.21 24.507V24.4022C190.125 21.0806 190.039 17.6481 190.039 14.1446V12.5393C190.039 8.68461 190.094 4.85458 190.207 1.15396V1.05228L190.311 1.03996C191.268 0.92903 192.347 0.870486 193.511 0.870486H193.762C194.883 0.870486 195.92 0.92903 196.849 1.03996L196.919 1.0492L196.998 1.25565L202.906 15.8209C202.891 14.7424 202.891 13.667 202.891 12.5424C202.891 8.65072 202.946 4.82069 203.059 1.15704V1.05536L203.163 1.04304C204.104 0.932112 205.214 0.873568 206.363 0.873568H206.837C207.913 0.873568 208.909 0.959844 209.756 1.04304L209.859 1.05228V1.15704C209.954 5.2952 210 8.97425 210 12.4006C210 16.0858 209.954 20.0114 209.862 24.4022V24.5131L209.752 24.5193C208.823 24.5809 207.98 24.6333 207.063 24.6333L207.066 24.6302ZM203.343 24.2851C204.196 24.356 205.14 24.393 206.311 24.393H207.066C207.94 24.393 208.75 24.3468 209.633 24.2882C209.725 19.9405 209.771 16.0519 209.771 12.4006C209.771 9.00814 209.725 5.36299 209.633 1.26797C208.814 1.19094 207.864 1.11083 206.843 1.11083H206.369C205.269 1.11083 204.211 1.16629 203.301 1.26797C203.191 4.89464 203.135 8.69077 203.135 12.5424C203.135 13.8889 203.135 15.1615 203.163 16.4556L203.178 17.0996L196.76 1.27413C195.858 1.16937 194.853 1.11391 193.771 1.11391H193.52C192.405 1.11391 191.372 1.16629 190.449 1.27105C190.339 4.93777 190.284 8.73083 190.284 12.5455V14.1508C190.284 17.6142 190.369 21.0097 190.449 24.2944C191.335 24.3652 192.359 24.3991 193.575 24.3991H194.19C195.152 24.3991 196.051 24.3406 196.784 24.2944C196.858 20.7755 196.894 16.9948 196.894 12.4068V8.39189L203.346 24.2944L203.343 24.2851Z" fill="black"/>
<path d="M145.347 17.7282C145.402 18.8004 145.46 19.9559 145.46 21.1669C145.46 22.2946 145.405 23.3361 145.347 24.3498C142.718 24.4638 140.007 24.4916 137.183 24.4916C134.582 24.4916 132.039 24.4361 129.579 24.3498C129.466 20.5167 129.411 16.5419 129.411 12.4838C129.411 8.42578 129.466 4.8176 129.579 1.12623C130.584 1.03996 131.676 1.01222 132.794 1.01222C133.968 1.01222 135.086 1.03996 136.147 1.12623V17.7251H145.343L145.347 17.7282Z" fill="#F0F5EA"/>
<path d="M137.186 24.621C134.848 24.621 132.36 24.5748 129.579 24.4792H129.46L129.457 24.356C129.344 20.529 129.289 16.5357 129.289 12.4869C129.289 8.43811 129.347 4.81452 129.457 1.12623V1.01222L129.573 1.00298C130.474 0.925949 131.529 0.888974 132.797 0.888974C134.127 0.888974 135.196 0.922868 136.162 1.00298L136.278 1.01222V17.6018H145.469L145.475 17.722C145.533 18.7974 145.588 19.9498 145.588 21.1669C145.588 22.2576 145.536 23.256 145.475 24.3591L145.469 24.4762L145.353 24.4823C142.446 24.6087 139.46 24.6241 137.186 24.6241V24.621ZM129.707 24.2266C132.44 24.319 134.888 24.3652 137.186 24.3652C139.484 24.3652 142.361 24.3498 145.227 24.2297C145.285 23.1789 145.334 22.2145 145.334 21.17C145.334 20.0021 145.282 18.896 145.227 17.8576H136.025V1.24948C135.096 1.17861 134.066 1.14472 132.797 1.14472C131.529 1.14472 130.578 1.17861 129.707 1.24948C129.597 4.9008 129.542 8.68153 129.542 12.49C129.542 16.4926 129.6 20.4397 129.707 24.2297V24.2266Z" fill="black"/>
</svg>
